HIERARCHY
ROOT Hips
{
	OFFSET 0.000000 0.000000 0.000000
	CHANNELS 6 Xposition Yposition Zposition Xrotation Yrotation Zrotation
	JOINT LeftUpLeg_virtual
	{
		OFFSET 0.000000 0.000000 0.000000
		CHANNELS 3 Xrotation Yrotation Zrotation
		JOINT LeftUpLeg
		{
			OFFSET 15.427100 -6.655098 0.678600
			CHANNELS 3 Xrotation Yrotation Zrotation
			JOINT LeftLeg
			{
				OFFSET 4.081073 -39.591068 13.024000
				CHANNELS 3 Xrotation Yrotation Zrotation
				JOINT LeftFoot
				{
					OFFSET -4.081074 -37.707932 -15.979700
					CHANNELS 3 Xrotation Yrotation Zrotation
					JOINT LeftToeBase
					{
						OFFSET 5.346399 -15.068900 20.645000
						CHANNELS 3 Xrotation Yrotation Zrotation
						JOINT LeftToe_End
						{
							OFFSET 2.754700 0.931300 11.300900
							CHANNELS 3 Xrotation Yrotation Zrotation
							End Site
							{
								OFFSET 0 0 0
							}
						}
					}
				}
			}
		}
	}
	JOINT RightUpLeg_virtual
	{
		OFFSET 0.000000 0.000000 0.000000
		CHANNELS 3 Xrotation Yrotation Zrotation
		JOINT RightUpLeg
		{
			OFFSET -15.569500 -6.655098 0.678600
			CHANNELS 3 Xrotation Yrotation Zrotation
			JOINT RightLeg
			{
				OFFSET -4.081825 -39.591045 13.023800
				CHANNELS 3 Xrotation Yrotation Zrotation
				JOINT RightFoot
				{
					OFFSET 4.081824 -37.707954 -15.979600
					CHANNELS 3 Xrotation Yrotation Zrotation
					JOINT RightToeBase
					{
						OFFSET -5.346400 -15.068900 20.645000
						CHANNELS 3 Xrotation Yrotation Zrotation
						JOINT RightToe_End
						{
							OFFSET -2.754700 0.931300 11.300900
							CHANNELS 3 Xrotation Yrotation Zrotation
							End Site
							{
								OFFSET 0 0 0
							}
						}
					}
				}
			}
		}
	}
	JOINT Spine_virtual
	{
		OFFSET 0.000000 0.000000 0.000000
		CHANNELS 3 Xrotation Yrotation Zrotation
		JOINT Spine
		{
			OFFSET -0.279200 12.230698 -2.892100
			CHANNELS 3 Xrotation Yrotation Zrotation
			JOINT Spine1
			{
				OFFSET -0.232667 10.192268 -1.242267
				CHANNELS 3 Xrotation Yrotation Zrotation
				JOINT Spine1_split
				{
					OFFSET -0.232667 10.192268 -1.242267
					CHANNELS 3 Xrotation Yrotation Zrotation
					JOINT Spine2
					{
						OFFSET -0.232667 10.192268 -1.242267
						CHANNELS 3 Xrotation Yrotation Zrotation
						JOINT Neck_virtual
						{
							OFFSET 0.000000 0.000000 0.000000
							CHANNELS 3 Xrotation Yrotation Zrotation
							JOINT Neck
							{
								OFFSET -0.418800 17.814194 8.416900
								CHANNELS 3 Xrotation Yrotation Zrotation
								JOINT Head
								{
									OFFSET 0.000000 7.031097 3.806800
									CHANNELS 3 Xrotation Yrotation Zrotation
									JOINT HeadTop_End
									{
										OFFSET 0.000000 24.646606 12.978600
										CHANNELS 3 Xrotation Yrotation Zrotation
										End Site
										{
											OFFSET 0 0 0
										}
									}
								}
							}
						}
						JOINT LeftShoulder_virtual
						{
							OFFSET 0.000000 0.000000 0.000000
							CHANNELS 3 Xrotation Yrotation Zrotation
							JOINT LeftShoulder
							{
								OFFSET 8.476499 7.247704 -3.868750
								CHANNELS 3 Xrotation Yrotation Zrotation
								JOINT LeftShoulder_split
								{
									OFFSET 8.476499 7.247704 -3.868750
									CHANNELS 3 Xrotation Yrotation Zrotation
									JOINT LeftArm
									{
										OFFSET 9.308998 -2.777710 0.208600
										CHANNELS 3 Xrotation Yrotation Zrotation
										JOINT LeftForeArm
										{
											OFFSET 29.972298 0.000000 0.000000
											CHANNELS 3 Xrotation Yrotation Zrotation
											JOINT LeftHand
											{
												OFFSET 26.026505 0.000000 0.000000
												CHANNELS 3 Xrotation Yrotation Zrotation
												End Site
												{
													OFFSET 0 0 0
												}
											}
										}
									}
								}
							}
						}
						JOINT RightShoulder_virtual
						{
							OFFSET 0.000000 0.000000 0.000000
							CHANNELS 3 Xrotation Yrotation Zrotation
							JOINT RightShoulder
							{
								OFFSET -7.570500 7.247704 -3.868750
								CHANNELS 3 Xrotation Yrotation Zrotation
								JOINT RightShoulder_split
								{
									OFFSET -7.570500 7.247704 -3.868750
									CHANNELS 3 Xrotation Yrotation Zrotation
									JOINT RightArm
									{
										OFFSET -9.308998 -2.777710 0.208500
										CHANNELS 3 Xrotation Yrotation Zrotation
										JOINT RightForeArm
										{
											OFFSET -29.972300 0.000000 0.000000
											CHANNELS 3 Xrotation Yrotation Zrotation
											JOINT RightHand
											{
												OFFSET -26.026505 0.000000 0.000000
												CHANNELS 3 Xrotation Yrotation Zrotation
												End Site
												{
													OFFSET 0 0 0
												}
											}
										}
									}
								}
							}
						}
					}
				}
			}
		}
	}
}
MOTION
Frames: 9
Frame Time: 0.03333333
1.203979 52.966827 4.683441 0.000000 0.000000 0.000000 -2.264031 3.792373 0.587244 -85.570686 -10.856561 10.139496 75.053199 6.192928 3.230260 20.414810 -7.069998 -6.882847 -6.029633 0.052260 -1.261854 0.000000 0.000000 0.000000 -2.731522 4.803727 0.828922 -83.042704 10.226303 -11.340720 77.410441 -2.985463 -3.603233 13.809858 2.212674 9.280872 4.595741 1.685779 1.153283 0.000000 0.000000 0.000000 -1.449648 -0.100229 -0.375766 10.436194 0.324401 -0.151923 0.222470 1.054369 -0.539545 0.943234 0.431618 0.124473 0.000000 0.000000 0.000000 -0.287683 0.533422 0.147742 -1.863648 -0.458308 -1.583962 -11.081859 -5.096902 -5.437304 0.000000 0.000000 0.000000 -0.824207 0.856087 -0.222474 1.638494 -16.555438 -2.996092 -1.072398 -0.100898 -1.431426 -0.008891 -17.277151 -59.096620 -2.235601 -52.638338 -1.881843 0.000000 0.000000 0.000000 0.232000 0.911340 0.282497 3.480797 -8.088625 8.724100 4.614249 3.107771 -3.725421 -9.046411 38.801840 72.479946 1.293167 60.868330 -2.996453 0.000000 0.000000 0.000000 
1.241924 52.958000 4.551285 0.000000 0.000000 0.000000 -2.100636 3.713763 0.582079 -85.644555 -10.979048 10.252439 74.981086 5.991459 3.161878 20.585659 -7.163825 -6.968666 -5.946083 0.099153 -1.371634 0.000000 0.000000 0.000000 -2.762396 4.889546 0.811543 -83.138340 10.270629 -11.227934 77.495989 -3.037618 -3.632450 14.191122 2.003976 9.271321 4.646247 1.656203 1.262587 0.000000 0.000000 0.000000 -1.481421 -0.169189 -0.305284 10.500783 0.296737 -0.161925 0.338113 1.058713 -0.571376 1.023820 0.479210 0.243443 0.000000 0.000000 0.000000 -0.048666 0.516320 0.185318 -1.824180 -0.526954 -1.445227 -11.133867 -5.452736 -5.388236 0.000000 0.000000 0.000000 -0.796478 0.906804 -0.197493 1.619010 -16.390622 -2.607415 -1.098156 -0.719672 -1.082388 -0.345959 -17.469636 -59.587192 -1.651042 -52.771691 -1.699520 0.000000 0.000000 0.000000 0.280216 0.873273 0.246438 3.408866 -8.045217 8.482745 4.443416 2.967928 -3.146741 -9.301026 39.031690 72.931729 1.229511 59.674092 -2.872437 0.000000 0.000000 0.000000 
1.246338 52.863388 4.488914 0.000000 0.000000 0.000000 -1.891397 3.579906 0.509015 -85.942160 -11.094240 10.441863 75.113831 5.935330 2.957370 20.707641 -6.850430 -7.040065 -5.696009 0.192441 -1.555394 0.000000 0.000000 0.000000 -2.724249 5.034383 0.717244 -83.299532 10.377127 -10.978402 77.836474 -3.001612 -3.780890 14.595245 1.680663 9.471287 4.243263 1.650033 1.242294 0.000000 0.000000 0.000000 -1.384417 -0.196622 -0.265542 10.740570 0.270966 -0.147463 0.633755 1.040814 -0.653941 1.029009 0.630278 0.291970 0.000000 0.000000 0.000000 0.309239 0.500393 0.158532 -1.521166 -0.700495 -1.214888 -11.642816 -5.883670 -5.147544 0.000000 0.000000 0.000000 -0.529224 0.938400 -0.227426 1.788326 -15.564172 -1.039402 -0.580526 -0.903648 -0.805639 -2.128744 -17.571138 -61.609857 -0.845042 -53.422215 -1.336000 0.000000 0.000000 0.000000 0.564341 0.824408 0.138081 3.286676 -8.166694 7.567294 4.329659 2.758531 -2.423761 -10.466697 39.310730 74.139969 0.918036 58.305719 -2.340492 0.000000 0.000000 0.000000 
1.195738 52.724884 4.484360 0.000000 0.000000 0.000000 -1.615652 3.458881 0.379778 -86.317882 -11.216546 10.564891 75.391013 5.984391 2.726336 20.581839 -6.215450 -7.157357 -5.345472 0.306969 -1.766542 0.000000 0.000000 0.000000 -2.557440 5.251875 0.602356 -83.493298 10.527342 -10.568261 78.084068 -2.962856 -4.094315 14.795242 1.240587 9.768219 3.579727 1.671768 1.103872 0.000000 0.000000 0.000000 -1.114503 -0.133822 -0.263027 11.120804 0.238111 -0.138935 1.072291 0.997457 -0.760708 1.029631 0.716945 0.201876 0.000000 0.000000 0.000000 0.757123 0.481029 0.081239 -0.979809 -0.921467 -0.909139 -12.533798 -6.258782 -4.817090 0.000000 0.000000 0.000000 -0.059686 0.928645 -0.280272 2.074695 -14.228799 1.448317 -0.054135 -0.659672 -0.613928 -5.037573 -17.589235 -64.853049 -0.002080 -54.280709 -0.902767 0.000000 0.000000 0.000000 1.044591 0.763793 -0.011151 3.159644 -8.492054 6.121145 4.409405 2.621573 -1.700178 -12.441622 39.503400 75.946861 0.536158 57.053882 -1.597582 0.000000 0.000000 0.000000 
1.146091 52.596611 4.523026 0.000000 0.000000 0.000000 -1.270491 3.405663 0.259532 -86.657205 -11.306378 10.554568 75.726321 6.004913 2.551948 20.141111 -5.495509 -7.492503 -5.036611 0.404377 -1.911145 0.000000 0.000000 0.000000 -2.276896 5.510097 0.515057 -83.734035 10.630656 -9.988934 78.069411 -3.021366 -4.562058 14.792175 0.625663 10.084468 2.967597 1.710870 0.903062 0.000000 0.000000 0.000000 -0.670899 0.054851 -0.278816 11.575920 0.185205 -0.180248 1.614567 0.935335 -0.854909 1.124715 0.448471 0.132905 0.000000 0.000000 0.000000 1.248066 0.452379 -0.017219 -0.233789 -1.178903 -0.539103 -13.617557 -6.408729 -4.491690 0.000000 0.000000 0.000000 0.579938 0.885184 -0.329209 2.385998 -12.554218 4.395042 0.212193 -0.262859 -0.785088 -8.551803 -17.595901 -68.764992 0.689683 -55.241576 -0.507460 0.000000 0.000000 0.000000 1.657487 0.698058 -0.162570 3.062771 -8.998202 4.387437 4.596386 2.615790 -1.093351 -14.879936 39.445992 78.205796 0.312706 56.111951 -0.888485 0.000000 0.000000 0.000000 
1.138472 52.515297 4.605888 0.000000 0.000000 0.000000 -0.824141 3.598353 0.211881 -86.954851 -11.293244 10.362292 76.052920 5.865797 2.444483 19.405822 -4.921516 -8.110987 -4.947066 0.454877 -1.877477 0.000000 0.000000 0.000000 -1.837737 5.805304 0.509489 -84.102237 10.694485 -9.300133 77.831016 -3.184012 -5.128460 14.784715 -0.180239 10.527121 2.477515 1.736426 0.701314 0.000000 0.000000 0.000000 -0.062704 0.469183 -0.289509 12.021813 0.101869 -0.316107 2.223067 0.860888 -0.908215 1.113571 0.162241 -0.023034 0.000000 0.000000 0.000000 1.757296 0.424365 -0.109310 0.620308 -1.430076 -0.138596 -14.681128 -6.299646 -4.265413 0.000000 0.000000 0.000000 1.329809 0.833462 -0.366987 2.664016 -10.820475 7.299219 0.256891 0.073571 -1.302172 -11.943839 -17.539680 -72.721215 1.143989 -56.232784 -0.207697 0.000000 0.000000 0.000000 2.328280 0.641392 -0.283956 3.014517 -9.611684 2.620711 4.806485 2.702078 -0.625329 -17.462372 38.974203 80.715972 0.356463 55.522280 -0.392837 0.000000 0.000000 0.000000 
1.150337 52.487480 4.741280 0.000000 0.000000 0.000000 -0.200845 4.072940 0.251848 -87.262989 -11.069093 10.087420 76.319946 5.537088 2.365426 18.454268 -4.612397 -8.958609 -5.025555 0.456963 -1.647811 0.000000 0.000000 0.000000 -1.187888 6.221763 0.604131 -84.631392 10.763425 -8.597052 77.500818 -3.412311 -5.779011 14.909258 -1.133566 11.209239 1.888953 1.725516 0.530700 0.000000 0.000000 0.000000 0.714008 1.067334 -0.279420 12.450110 -0.021293 -0.552079 2.840577 0.798952 -0.923552 1.091350 -0.043673 -0.165561 0.000000 0.000000 0.000000 2.257017 0.418761 -0.186437 1.449999 -1.701325 0.203191 -15.544378 -6.038995 -4.171608 0.000000 0.000000 0.000000 2.119042 0.786287 -0.400513 2.891468 -9.284132 9.737169 0.289863 0.225373 -1.642348 -14.681276 -17.365727 -76.301245 1.465921 -57.391170 0.096545 0.000000 0.000000 0.000000 3.003240 0.634415 -0.369173 2.997438 -10.221995 1.005131 4.849660 2.824247 -0.281419 -19.907309 37.980988 83.211696 0.613411 55.261804 -0.155457 0.000000 0.000000 0.000000 
1.211750 52.489952 5.045979 0.000000 0.000000 0.000000 0.659387 4.707323 0.362621 -87.705045 -10.645169 9.874860 76.510789 5.091805 2.223491 17.332903 -4.492482 -9.879944 -5.090336 0.430024 -1.305364 0.000000 0.000000 0.000000 -0.239384 6.689954 0.757708 -85.307102 10.839777 -7.937785 77.287388 -3.682350 -6.462509 15.009091 -2.209282 12.050534 1.236042 1.661667 0.407451 0.000000 0.000000 0.000000 1.662396 1.774315 -0.228494 12.858117 -0.179974 -0.848402 3.392518 0.782000 -0.920306 1.077070 -0.229261 -0.256870 0.000000 0.000000 0.000000 2.724318 0.457361 -0.247403 2.103577 -2.000810 0.421287 -16.041389 -5.723848 -4.178228 0.000000 0.000000 0.000000 2.866468 0.772476 -0.446036 3.075472 -8.142040 11.464957 0.361355 0.171989 -1.604078 -16.341031 -16.991820 -79.121656 1.706850 -58.944614 0.466099 0.000000 0.000000 0.000000 3.639672 0.694447 -0.420136 2.971888 -10.752605 -0.350138 4.596205 2.906416 -0.058640 -21.847969 36.561709 85.397999 0.951177 55.255954 -0.147313 0.000000 0.000000 0.000000 
1.300952 52.538170 5.619106 0.000000 0.000000 0.000000 1.865165 5.374027 0.493838 -88.330943 -10.099241 9.854799 76.671886 4.656122 1.974511 16.066524 -4.402040 -10.664702 -4.992141 0.395684 -0.973507 0.000000 0.000000 0.000000 1.109838 7.161573 0.879774 -86.109349 10.944605 -7.381713 77.457911 -4.008623 -7.080448 14.837010 -3.425243 12.758581 1.107334 1.567268 0.336250 0.000000 0.000000 0.000000 2.893965 2.506931 -0.160720 13.221704 -0.347418 -1.140194 3.840421 0.828780 -0.913572 0.923575 -0.439733 -0.319582 0.000000 0.000000 0.000000 3.127816 0.535656 -0.300003 2.485653 -2.302149 0.483971 -16.099741 -5.548825 -4.241272 0.000000 0.000000 0.000000 3.468640 0.793095 -0.518238 3.249897 -7.552307 12.445205 0.449034 0.089324 -1.243970 -17.079018 -16.293577 -81.120757 2.006865 -60.855483 0.972803 0.000000 0.000000 0.000000 4.179582 0.814524 -0.451356 2.914595 -11.141020 -1.430234 4.293970 2.817139 0.075087 -23.068943 35.031593 86.960486 1.175447 55.550687 -0.237459 0.000000 0.000000 0.000000 
